<svg xmlns="http://www.w3.org/2000/svg" xmlns:xlink="http://www.w3.org/1999/xlink" width="500" zoomAndPan="magnify" viewBox="0 0 375 374.999991" height="500" preserveAspectRatio="xMidYMid meet" version="1.0"><defs><g/><clipPath id="f2ca1e9bfc"><path d="M 187.5 0 C 83.945312 0 0 83.945312 0 187.5 C 0 291.054688 83.945312 375 187.5 375 C 291.054688 375 375 291.054688 375 187.5 C 375 83.945312 291.054688 0 187.5 0 Z M 187.5 0 " clip-rule="nonzero"/></clipPath><clipPath id="4d0a37e2e4"><path d="M 12.476562 12.476562 L 362.523438 12.476562 L 362.523438 362.523438 L 12.476562 362.523438 Z M 12.476562 12.476562 " clip-rule="nonzero"/></clipPath><clipPath id="4110df0503"><path d="M 187.5 12.476562 C 90.835938 12.476562 12.476562 90.835938 12.476562 187.5 C 12.476562 284.164062 90.835938 362.523438 187.5 362.523438 C 284.164062 362.523438 362.523438 284.164062 362.523438 187.5 C 362.523438 90.835938 284.164062 12.476562 187.5 12.476562 Z M 187.5 12.476562 " clip-rule="nonzero"/></clipPath><clipPath id="f8bcf6df16"><path d="M 12.476562 12.476562 L 362.515625 12.476562 L 362.515625 362.515625 L 12.476562 362.515625 Z M 12.476562 12.476562 " clip-rule="nonzero"/></clipPath><clipPath id="82d8108d43"><path d="M 187.496094 12.476562 C 90.835938 12.476562 12.476562 90.835938 12.476562 187.496094 C 12.476562 284.15625 90.835938 362.515625 187.496094 362.515625 C 284.15625 362.515625 362.515625 284.15625 362.515625 187.496094 C 362.515625 90.835938 284.15625 12.476562 187.496094 12.476562 Z M 187.496094 12.476562 " clip-rule="nonzero"/></clipPath><clipPath id="a22614df20"><path d="M 75.117188 75.117188 L 302.363281 75.117188 L 302.363281 302.363281 L 75.117188 302.363281 Z M 75.117188 75.117188 " clip-rule="nonzero"/></clipPath><clipPath id="04ea207360"><path d="M 188.738281 75.117188 C 125.988281 75.117188 75.117188 125.988281 75.117188 188.738281 C 75.117188 251.492188 125.988281 302.363281 188.738281 302.363281 C 251.492188 302.363281 302.363281 251.492188 302.363281 188.738281 C 302.363281 125.988281 251.492188 75.117188 188.738281 75.117188 Z M 188.738281 75.117188 " clip-rule="nonzero"/></clipPath><clipPath id="c32a650bcb"><path d="M 75.117188 75.117188 L 302.355469 75.117188 L 302.355469 302.355469 L 75.117188 302.355469 Z M 75.117188 75.117188 " clip-rule="nonzero"/></clipPath><clipPath id="fa4cf2add7"><path d="M 188.734375 75.117188 C 125.984375 75.117188 75.117188 125.984375 75.117188 188.734375 C 75.117188 251.484375 125.984375 302.355469 188.734375 302.355469 C 251.484375 302.355469 302.355469 251.484375 302.355469 188.734375 C 302.355469 125.984375 251.484375 75.117188 188.734375 75.117188 Z M 188.734375 75.117188 " clip-rule="nonzero"/></clipPath><clipPath id="ded5ccb050"><path d="M 88.796875 88.796875 L 287.25 88.796875 L 287.25 287.25 L 88.796875 287.25 Z M 88.796875 88.796875 " clip-rule="nonzero"/></clipPath><clipPath id="9e31282414"><path d="M 188.023438 88.796875 C 133.222656 88.796875 88.796875 133.222656 88.796875 188.023438 C 88.796875 242.824219 133.222656 287.25 188.023438 287.25 C 242.824219 287.25 287.25 242.824219 287.25 188.023438 C 287.25 133.222656 242.824219 88.796875 188.023438 88.796875 Z M 188.023438 88.796875 " clip-rule="nonzero"/></clipPath><clipPath id="c8eff620fd"><path d="M 88.796875 88.796875 L 287.242188 88.796875 L 287.242188 287.242188 L 88.796875 287.242188 Z M 88.796875 88.796875 " clip-rule="nonzero"/></clipPath><clipPath id="9588ff01c2"><path d="M 188.019531 88.796875 C 133.21875 88.796875 88.796875 133.21875 88.796875 188.019531 C 88.796875 242.816406 133.21875 287.242188 188.019531 287.242188 C 242.816406 287.242188 287.242188 242.816406 287.242188 188.019531 C 287.242188 133.21875 242.816406 88.796875 188.019531 88.796875 Z M 188.019531 88.796875 " clip-rule="nonzero"/></clipPath><clipPath id="a13cddc9d8"><path d="M 123.28125 127.359375 L 255.25 127.359375 L 255.25 290.058594 L 123.28125 290.058594 Z M 123.28125 127.359375 " clip-rule="nonzero"/></clipPath><clipPath id="05a526361e"><path d="M 126 73 L 241 73 L 241 136 L 126 136 Z M 126 73 " clip-rule="nonzero"/></clipPath><clipPath id="b8e79efcce"><path d="M 125.917969 65.117188 L 246.339844 74.039062 L 241.183594 143.597656 L 120.765625 134.675781 Z M 125.917969 65.117188 " clip-rule="nonzero"/></clipPath><clipPath id="a0e34bae56"><path d="M 125.917969 65.117188 L 246.339844 74.039062 L 241.183594 143.597656 L 120.765625 134.675781 Z M 125.917969 65.117188 " clip-rule="nonzero"/></clipPath><clipPath id="2b2c8df605"><path d="M 125.917969 65.117188 L 246.339844 74.039062 L 241.183594 143.597656 L 120.765625 134.675781 Z M 125.917969 65.117188 " clip-rule="nonzero"/></clipPath><clipPath id="213c999722"><path d="M 122 69 L 244 69 L 244 140 L 122 140 Z M 122 69 " clip-rule="nonzero"/></clipPath><clipPath id="c6b476faf7"><path d="M 125.917969 65.117188 L 246.339844 74.039062 L 241.183594 143.597656 L 120.765625 134.675781 Z M 125.917969 65.117188 " clip-rule="nonzero"/></clipPath><clipPath id="19bc624fa4"><path d="M 125.917969 65.117188 L 246.339844 74.039062 L 241.183594 143.597656 L 120.765625 134.675781 Z M 125.917969 65.117188 " clip-rule="nonzero"/></clipPath><clipPath id="5871f1e0f1"><path d="M 125.917969 65.117188 L 246.339844 74.039062 L 241.183594 143.597656 L 120.765625 134.675781 Z M 125.917969 65.117188 " clip-rule="nonzero"/></clipPath></defs><g clip-path="url(#f2ca1e9bfc)"><rect x="-37.5" width="450" fill="#bf8138" y="-37.499999" height="449.999989" fill-opacity="1"/><path stroke-linecap="butt" transform="matrix(0.75, 0, 0, 0.75, 0.0000045, -0.000000000000042633)" fill="none" stroke-linejoin="miter" d="M 249.999994 0.000000000000056843 C 111.927078 0.000000000000056843 -0.000006 111.927084 -0.000006 250 C -0.000006 388.072917 111.927078 500.000001 249.999994 500.000001 C 388.072911 500.000001 499.999995 388.072917 499.999995 250 C 499.999995 111.927084 388.072911 0.000000000000056843 249.999994 0.000000000000056843 Z M 249.999994 0.000000000000056843 " stroke="#000000" stroke-width="2" stroke-opacity="1" stroke-miterlimit="4"/></g><g clip-path="url(#4d0a37e2e4)"><g clip-path="url(#4110df0503)"><path fill="#fff5ec" d="M 12.476562 12.476562 L 362.523438 12.476562 L 362.523438 362.523438 L 12.476562 362.523438 Z M 12.476562 12.476562 " fill-opacity="1" fill-rule="nonzero"/></g></g><g clip-path="url(#f8bcf6df16)"><g clip-path="url(#82d8108d43)"><path stroke-linecap="butt" transform="matrix(0.75, 0, 0, 0.75, 12.476297, 12.476292)" fill="none" stroke-linejoin="miter" d="M 233.359745 0.000360479 C 104.479528 0.000360479 0.000354479 104.479534 0.000354479 233.359751 C 0.000354479 362.239968 104.479528 466.719141 233.359745 466.719141 C 362.239962 466.719141 466.719135 362.239968 466.719135 233.359751 C 466.719135 104.479534 362.239962 0.000360479 233.359745 0.000360479 Z M 233.359745 0.000360479 " stroke="#000000" stroke-width="2" stroke-opacity="1" stroke-miterlimit="4"/></g></g><g fill="#402300" fill-opacity="1"><g transform="translate(58.728596, 175.248866)"><g><path d="M 3.109375 -12.328125 L 5.0625 -20.125 L -21.90625 -26.921875 L -19.15625 -37.78125 L -26.4375 -39.609375 L -33.875 -10.09375 L -26.59375 -8.265625 L -23.859375 -19.125 Z M 3.109375 -12.328125 "/></g></g></g><g fill="#402300" fill-opacity="1"><g transform="translate(66.100151, 139.765166)"><g><path d="M 6.765625 -9.734375 L 11.28125 -16.25 L -2.90625 -35.890625 L 20.4375 -29.421875 L 24.9375 -35.890625 L 2.421875 -65.421875 L -2.40625 -58.46875 L 4.484375 -49.53125 L 12 -39.734375 L 0 -43.0625 L -10.984375 -46.109375 L -15.34375 -39.84375 L -8.671875 -30.59375 L -1.4375 -20.671875 L -13.09375 -24.21875 L -23.859375 -27.578125 L -28.734375 -20.5625 Z M 6.765625 -9.734375 "/></g></g></g><g fill="#402300" fill-opacity="1"><g transform="translate(100.248827, 93.582976)"><g><path d="M 18.015625 -10.796875 C 27.296875 -16.796875 29.765625 -27.40625 23.90625 -36.46875 C 18.03125 -45.546875 7.359375 -47.65625 -1.921875 -41.65625 C -11.21875 -35.65625 -13.625 -25.078125 -7.75 -16 C -1.890625 -6.9375 8.71875 -4.796875 18.015625 -10.796875 Z M -0.890625 -20.4375 C -4.34375 -25.78125 -3.046875 -31.859375 2.21875 -35.25 C 7.5 -38.671875 13.546875 -37.34375 17 -32 C 20.4375 -26.671875 19.171875 -20.625 13.890625 -17.203125 C 8.625 -13.8125 2.546875 -15.109375 -0.890625 -20.4375 Z M -0.890625 -20.4375 "/></g></g></g><g fill="#402300" fill-opacity="1"><g transform="translate(139.972155, 70.612431)"><g/></g></g><g fill="#402300" fill-opacity="1"><g transform="translate(153.899976, 63.013814)"><g><path d="M 11.84375 -0.578125 L 19.75 -0.953125 L 26.671875 -24.171875 L 35.78125 -1.734375 L 43.65625 -2.125 L 53.328125 -37.953125 L 44.859375 -37.546875 L 42.015625 -26.640625 L 38.796875 -14.703125 L 34.140625 -26.265625 L 29.84375 -36.8125 L 22.21875 -36.4375 L 18.96875 -25.53125 L 15.515625 -13.734375 L 11.21875 -25.15625 L 7.296875 -35.71875 L -1.21875 -35.3125 Z M 11.84375 -0.578125 "/></g></g></g><g fill="#402300" fill-opacity="1"><g transform="translate(211.327859, 61.921491)"><g><path d="M 19.546875 7.6875 C 29.96875 11.390625 39.875 6.890625 43.484375 -3.28125 C 47.109375 -13.46875 42.265625 -23.21875 31.84375 -26.921875 C 21.421875 -30.625 11.578125 -26.09375 7.953125 -15.90625 C 4.34375 -5.734375 9.125 3.984375 19.546875 7.6875 Z M 15.65625 -13.171875 C 17.796875 -19.15625 23.40625 -21.828125 29.296875 -19.734375 C 35.234375 -17.625 37.859375 -12.03125 35.71875 -6.046875 C 33.59375 -0.0625 28.03125 2.625 22.09375 0.515625 C 16.203125 -1.578125 13.53125 -7.1875 15.65625 -13.171875 Z M 15.65625 -13.171875 "/></g></g></g><g fill="#402300" fill-opacity="1"><g transform="translate(253.253069, 77.856008)"><g><path d="M 3.34375 2.609375 L 9.671875 7.546875 L 16.4375 -1.125 L 20.609375 2.125 L 18.828125 14.671875 L 26.140625 20.390625 L 27.921875 6.21875 C 32.40625 7.359375 36.71875 5.84375 39.921875 1.734375 C 44.546875 -4.1875 43.328125 -11.015625 36.96875 -15.96875 L 25.0625 -25.25 Z M 20.515625 -6.546875 L 27.09375 -14.984375 L 31.90625 -11.21875 C 35.015625 -8.796875 35.59375 -5.921875 33.46875 -3.203125 C 31.375 -0.515625 28.4375 -0.359375 25.328125 -2.78125 Z M 20.515625 -6.546875 "/></g></g></g><g fill="#402300" fill-opacity="1"><g transform="translate(283.814944, 101.038162)"><g><path d="M 2.28125 3.5625 L 6.59375 10.28125 L 24.515625 -1.21875 L 18.59375 12.78125 L 21.578125 17.453125 L 36.75 17.921875 L 18.859375 29.390625 L 23.15625 36.109375 L 52.890625 17.03125 L 49.25 11.34375 L 27.078125 10.703125 L 35.703125 -9.78125 L 32.015625 -15.515625 Z M 2.28125 3.5625 "/></g></g></g><g fill="#402300" fill-opacity="1"><g transform="translate(309.280225, 143.796667)"><g><path d="M 3.296875 16.234375 C 5.3125 24.375 10.421875 28.390625 16.875 26.796875 C 22.328125 25.453125 24.671875 21.0625 24.5625 12.0625 C 24.484375 6.515625 25.359375 4.375 27.46875 3.859375 C 29.71875 3.296875 31.59375 4.96875 32.40625 8.234375 C 33.296875 11.8125 31.96875 14.4375 28.875 15.203125 L 30.734375 22.703125 C 37.65625 20.984375 40.765625 14.703125 38.75 6.5625 C 36.78125 -1.328125 31.71875 -5.265625 25.453125 -3.71875 C 19.859375 -2.328125 17.46875 2.265625 17.734375 10.734375 C 17.90625 15.84375 17.03125 18.40625 14.640625 19 C 12.328125 19.5625 10.5 17.828125 9.703125 14.59375 C 8.765625 10.8125 10.0625 7.90625 13.34375 7.09375 L 11.453125 -0.546875 C 4.359375 1.203125 1.15625 7.625 3.296875 16.234375 Z M 3.296875 16.234375 "/></g></g></g><path stroke-linecap="butt" transform="matrix(0.74526, -0.0841912, 0.0841912, 0.74526, 4.92293, 193.222634)" fill="none" stroke-linejoin="miter" d="M -0.000223121 5.00036 L 99.61379 5.000237 " stroke="#bf8138" stroke-width="10" stroke-opacity="1" stroke-miterlimit="4"/><path stroke-linecap="butt" transform="matrix(0.744303, -0.0922679, 0.0922679, 0.744303, 16.305476, 228.062519)" fill="none" stroke-linejoin="miter" d="M -0.0017594 5.001291 L 93.096053 5.001424 " stroke="#bf8138" stroke-width="10" stroke-opacity="1" stroke-miterlimit="4"/><path stroke-linecap="butt" transform="matrix(0.738595, 0.130298, -0.130298, 0.738595, 291.246929, 192.341939)" fill="none" stroke-linejoin="miter" d="M -0.00216315 5.00071 L 96.190134 5.002771 " stroke="#bf8138" stroke-width="10" stroke-opacity="1" stroke-miterlimit="4"/><path stroke-linecap="butt" transform="matrix(0.737998, 0.133639, -0.133639, 0.737998, 291.004733, 228.465923)" fill="none" stroke-linejoin="miter" d="M -0.000709805 5.000587 L 93.098478 5.000266 " stroke="#bf8138" stroke-width="10" stroke-opacity="1" stroke-miterlimit="4"/><g fill="#402300" fill-opacity="1"><g transform="translate(24.165005, 217.802167)"><g><path d="M 4.140625 -0.609375 L 6.921875 -1.015625 L 8.546875 -9.421875 L 12.53125 -1.84375 L 15.28125 -2.25 L 17.453125 -15.1875 L 14.484375 -14.75 L 13.875 -10.828125 L 13.140625 -6.515625 L 11.109375 -10.421875 L 9.21875 -13.96875 L 6.546875 -13.578125 L 5.796875 -9.640625 L 4.96875 -5.359375 L 3.078125 -9.234375 L 1.328125 -12.8125 L -1.65625 -12.375 Z M 4.140625 -0.609375 "/></g></g></g><g fill="#402300" fill-opacity="1"><g transform="translate(44.1258, 214.856877)"><g><path d="M 1.484375 -0.21875 L 6.375 -0.9375 C 10.28125 -1.515625 12.515625 -4.390625 11.984375 -8.09375 C 11.4375 -11.75 8.453125 -13.859375 4.546875 -13.28125 L -0.34375 -12.5625 Z M 3.921875 -3.21875 L 2.859375 -10.421875 L 4.859375 -10.703125 C 7.0625 -11.03125 8.78125 -9.828125 9.109375 -7.671875 C 9.421875 -5.484375 8.125 -3.828125 5.953125 -3.515625 Z M 3.921875 -3.21875 "/></g></g></g><g fill="#402300" fill-opacity="1"><g transform="translate(58.267791, 212.770174)"><g><path d="M 1.484375 -0.21875 L 6.375 -0.9375 C 10.28125 -1.515625 12.515625 -4.390625 11.984375 -8.09375 C 11.4375 -11.75 8.453125 -13.859375 4.546875 -13.28125 L -0.34375 -12.5625 Z M 3.921875 -3.21875 L 2.859375 -10.421875 L 4.859375 -10.703125 C 7.0625 -11.03125 8.78125 -9.828125 9.109375 -7.671875 C 9.421875 -5.484375 8.125 -3.828125 5.953125 -3.515625 Z M 3.921875 -3.21875 "/></g></g></g><g fill="#402300" fill-opacity="1"><g transform="translate(301.641393, 222.49097)"><g><path d="M 0.890625 0.15625 L 10.109375 1.75 L 10.53125 -0.703125 L 5.734375 -1.53125 L 8.40625 -3.140625 C 10.3125 -4.234375 11.140625 -5.5 11.375 -6.875 C 11.796875 -9.265625 10.25 -11.140625 7.640625 -11.59375 C 4.921875 -12.0625 2.96875 -10.734375 2.421875 -8 L 4.96875 -7.5625 C 5.25 -8.8125 6.078125 -9.40625 7.171875 -9.21875 C 8.25 -9.03125 8.84375 -8.21875 8.671875 -7.21875 C 8.546875 -6.46875 8.015625 -5.875 7.0625 -5.296875 L 1.234375 -1.8125 Z M 0.890625 0.15625 "/></g></g></g><g fill="#402300" fill-opacity="1"><g transform="translate(313.458975, 224.540461)"><g><path d="M 6.109375 1.3125 C 9.421875 1.890625 11.828125 -0.171875 12.515625 -4.15625 C 13.203125 -8.140625 11.640625 -10.90625 8.328125 -11.484375 C 5.03125 -12.046875 2.625 -9.96875 1.9375 -5.984375 C 1.25 -2 2.8125 0.75 6.109375 1.3125 Z M 4.65625 -5.515625 C 5.078125 -7.96875 6.265625 -9.265625 7.90625 -8.984375 C 9.5625 -8.6875 10.21875 -7.078125 9.796875 -4.625 C 9.375 -2.1875 8.203125 -0.890625 6.546875 -1.1875 C 4.90625 -1.46875 4.234375 -3.078125 4.65625 -5.515625 Z M 4.65625 -5.515625 "/></g></g></g><g fill="#402300" fill-opacity="1"><g transform="translate(326.294973, 226.766573)"><g><path d="M 0.890625 0.15625 L 10.109375 1.75 L 10.53125 -0.703125 L 5.734375 -1.53125 L 8.40625 -3.140625 C 10.3125 -4.234375 11.140625 -5.5 11.375 -6.875 C 11.796875 -9.265625 10.25 -11.140625 7.640625 -11.59375 C 4.921875 -12.0625 2.96875 -10.734375 2.421875 -8 L 4.96875 -7.5625 C 5.25 -8.8125 6.078125 -9.40625 7.171875 -9.21875 C 8.25 -9.03125 8.84375 -8.21875 8.671875 -7.21875 C 8.546875 -6.46875 8.015625 -5.875 7.0625 -5.296875 L 1.234375 -1.8125 Z M 0.890625 0.15625 "/></g></g></g><g fill="#402300" fill-opacity="1"><g transform="translate(338.112557, 228.816064)"><g><path d="M 0.875 -2.171875 L 7.015625 -1.109375 L 6.625 1.140625 L 9.359375 1.625 L 9.75 -0.625 L 11.3125 -0.359375 L 11.734375 -2.796875 L 10.171875 -3.0625 L 10.75 -6.421875 L 8.578125 -6.796875 L 7.5625 -3.453125 L 4.5 -3.984375 L 9.625 -11 L 6.59375 -11.53125 L 1.21875 -4.125 Z M 0.875 -2.171875 "/></g></g></g><g fill="#402300" fill-opacity="1"><g transform="translate(63.634506, 284.152374)"><g><path d="M 2.859375 3.453125 L 14.0625 17.03125 C 18.890625 22.875 25.375 24.1875 30.234375 20.171875 C 33.328125 17.625 34.484375 13.96875 33.421875 10.25 C 36.515625 11.390625 39.84375 10.796875 42.5625 8.5625 C 47.3125 4.640625 47.203125 -1.609375 42.375 -7.453125 L 31.71875 -20.375 Z M 13.390625 5.65625 L 20.328125 -0.0625 L 25.359375 6.03125 C 27.515625 8.640625 27.453125 11.171875 25.265625 12.96875 C 23.078125 14.78125 20.578125 14.359375 18.421875 11.75 Z M 25.3125 -4.1875 L 31.875 -9.59375 L 36.359375 -4.15625 C 38.4375 -1.640625 38.421875 0.71875 36.328125 2.453125 C 34.21875 4.1875 31.875 3.765625 29.796875 1.25 Z M 25.3125 -4.1875 "/></g></g></g><g fill="#402300" fill-opacity="1"><g transform="translate(98.292444, 322.270344)"><g><path d="M 0.421875 0.234375 L 8.3125 4.765625 L 13.6875 0.40625 L 26.59375 7.8125 L 25.5625 14.671875 L 33.4375 19.1875 L 39.171875 -20.65625 L 31.9375 -24.8125 Z M 18.9375 -4.296875 L 30.28125 -13.5625 L 28.0625 0.9375 Z M 18.9375 -4.296875 "/></g></g></g><g fill="#402300" fill-opacity="1"><g transform="translate(146.292688, 346.644303)"><g><path d="M 4.4375 0.6875 L 12.84375 1.984375 L 15.15625 -12.96875 L 19.59375 -12.28125 C 20.265625 -12.171875 20.859375 -12.078125 21.5 -12.046875 L 27.09375 4.1875 L 36.890625 5.703125 L 29.703125 -13.96875 C 31.40625 -15.15625 32.796875 -16.84375 34.125 -19.125 L 41.28125 -31.484375 L 32.1875 -32.890625 L 27.21875 -23.8125 C 25.390625 -20.53125 23.703125 -19.65625 19.53125 -20.296875 L 16.359375 -20.796875 L 18.5625 -35 L 10.15625 -36.296875 Z M 4.4375 0.6875 "/></g></g></g><g fill="#402300" fill-opacity="1"><g transform="translate(199.154497, 351.785227)"><g><path d="M 4.40625 -0.84375 L 29.140625 -5.546875 L 27.796875 -12.640625 L 11.359375 -9.515625 L 9.8125 -17.5625 L 24.265625 -20.3125 L 22.9375 -27.296875 L 8.484375 -24.546875 L 7.046875 -32.15625 L 22.921875 -35.171875 L 21.578125 -42.203125 L -2.59375 -37.609375 Z M 4.40625 -0.84375 "/></g></g></g><g fill="#402300" fill-opacity="1"><g transform="translate(244.596426, 341.117662)"><g><path d="M 3.875 -2.25 L 11.25 -6.515625 L 5.40625 -16.59375 L 10.25 -19.40625 L 21.890625 -12.6875 L 30.390625 -17.609375 L 17.171875 -24.96875 C 20.078125 -28.9375 20.296875 -33.75 17.53125 -38.515625 C 13.546875 -45.421875 6.359375 -46.9375 -1.046875 -42.640625 L -14.890625 -34.625 Z M 1.71875 -22.765625 L -3.96875 -32.5625 L 1.625 -35.796875 C 5.234375 -37.890625 8.296875 -37.296875 10.109375 -34.15625 C 11.9375 -31.015625 10.921875 -28.09375 7.3125 -26 Z M 1.71875 -22.765625 "/></g></g></g><g fill="#402300" fill-opacity="1"><g transform="translate(288.366518, 312.685552)"><g><path d="M 9.09375 -11 L 14.515625 -17.5625 L 4.34375 -25.96875 L -5.578125 -51.984375 L -11.734375 -44.53125 L -8 -35.484375 L -5.125 -28.296875 L -12.734375 -29.75 L -22.375 -31.671875 L -28.53125 -24.21875 L -1 -19.34375 Z M 9.09375 -11 "/></g></g></g><g clip-path="url(#a22614df20)"><g clip-path="url(#04ea207360)"><path fill="#b68445" d="M 75.117188 75.117188 L 302.363281 75.117188 L 302.363281 302.363281 L 75.117188 302.363281 Z M 75.117188 75.117188 " fill-opacity="1" fill-rule="nonzero"/></g></g><g clip-path="url(#c32a650bcb)"><g clip-path="url(#fa4cf2add7)"><path stroke-linecap="butt" transform="matrix(0.75, 0, 0, 0.75, 75.11674, 75.116736)" fill="none" stroke-linejoin="miter" d="M 151.490189 0.000602177 C 67.823517 0.000602177 0.000596177 67.823523 0.000596177 151.490195 C 0.000596177 235.156868 67.823517 302.984997 151.490189 302.984997 C 235.156862 302.984997 302.984991 235.156868 302.984991 151.490195 C 302.984991 67.823523 235.156862 0.000602177 151.490189 0.000602177 Z M 151.490189 0.000602177 " stroke="#000000" stroke-width="2" stroke-opacity="1" stroke-miterlimit="4"/></g></g><g clip-path="url(#ded5ccb050)"><g clip-path="url(#9e31282414)"><path fill="#fff5ec" d="M 88.796875 88.796875 L 287.25 88.796875 L 287.25 287.25 L 88.796875 287.25 Z M 88.796875 88.796875 " fill-opacity="1" fill-rule="nonzero"/></g></g><g clip-path="url(#c8eff620fd)"><g clip-path="url(#9588ff01c2)"><path stroke-linecap="butt" transform="matrix(0.75, 0, 0, 0.75, 88.79655, 88.796545)" fill="none" stroke-linejoin="miter" d="M 132.297317 0.000439508 C 59.229604 0.000439508 0.000433508 59.22961 0.000433508 132.297323 C 0.000433508 205.359828 59.229604 264.594207 132.297317 264.594207 C 205.359822 264.594207 264.594201 205.359828 264.594201 132.297323 C 264.594201 59.22961 205.359822 0.000439508 132.297317 0.000439508 Z M 132.297317 0.000439508 " stroke="#000000" stroke-width="2" stroke-opacity="1" stroke-miterlimit="4"/></g></g><path fill="#000000" d="M 181.640625 120.675781 C 184.964844 118.40625 188.601562 116.441406 189.597656 111.839844 C 184.957031 112.800781 182.785156 116.222656 181.640625 120.675781 Z M 191.144531 109.40625 C 191.539062 109.824219 191.742188 110.429688 192.25 110.730469 C 192.8125 117.050781 186.679688 120.207031 183.1875 123.328125 C 182.003906 124.386719 181.558594 125.371094 180.535156 125.316406 C 177.097656 125.132812 179.527344 116.949219 180.976562 114.710938 C 182.953125 111.65625 186.390625 108.558594 191.144531 109.40625 " fill-opacity="1" fill-rule="evenodd"/><path fill="#fffff8" d="M 189.597656 111.835938 C 188.601562 116.441406 184.964844 118.40625 181.640625 120.679688 C 182.785156 116.222656 184.957031 112.800781 189.597656 111.835938 " fill-opacity="1" fill-rule="evenodd"/><path fill="#000000" d="M 138.976562 123.769531 C 137.359375 120.234375 135.710938 116.722656 131.242188 116.035156 C 130.90625 121.378906 135.296875 123.175781 138.976562 123.769531 Z M 140.523438 126.863281 C 138.894531 127.847656 137.183594 126.316406 135.441406 125.539062 C 134.152344 124.964844 132.933594 124.992188 131.902344 124.214844 C 128.90625 121.945312 125.519531 110.960938 133.230469 113.382812 C 137.175781 114.625 143.371094 122.023438 140.523438 126.863281 " fill-opacity="1" fill-rule="evenodd"/><path fill="#fffff8" d="M 131.242188 116.035156 C 135.710938 116.726562 137.359375 120.234375 138.976562 123.769531 C 135.296875 123.175781 130.90625 121.378906 131.242188 116.035156 " fill-opacity="1" fill-rule="evenodd"/><g clip-path="url(#a13cddc9d8)"><path fill="#000000" d="M 245.742188 283.105469 C 247.480469 282.667969 252.90625 281.097656 252.816406 279.789062 C 252.75 278.816406 248.007812 277.402344 247.070312 277.136719 C 240.109375 275.171875 231.695312 274.394531 224.964844 273.824219 C 222.527344 277.941406 220.664062 282.636719 218.113281 286.640625 C 227.402344 285.703125 237.277344 285.238281 245.742188 283.105469 Z M 133.449219 276.695312 C 131.246094 277.230469 125.613281 278.527344 125.714844 280.011719 C 125.789062 281.132812 131.3125 282.664062 132.125 282.882812 C 140.175781 285.0625 148.554688 285.378906 156.882812 286.421875 C 160.125 282.148438 162.984375 277.492188 165.945312 272.941406 C 155.246094 273.457031 143.167969 274.34375 133.449219 276.695312 Z M 178.101562 247.96875 C 174.308594 260.785156 168.972656 273.105469 162.1875 282.664062 C 161.21875 284.027344 159.28125 285.054688 159.535156 286.421875 C 177.03125 287.96875 197.164062 287.6875 215.238281 286.863281 C 218.46875 282.636719 221.449219 277.285156 222.976562 272.054688 C 226.34375 266.433594 228.675781 260.164062 231.375 253.933594 C 234.070312 247.710938 236.503906 241.15625 238.667969 234.488281 C 238.65625 234.351562 238.636719 234.226562 238.449219 234.265625 C 222.082031 242.582031 203.132812 248.316406 178.101562 247.96875 Z M 229.386719 177.03125 C 216.699219 189.445312 201.949219 200.589844 181.640625 204.210938 C 183.175781 218.671875 181.210938 234.09375 178.542969 246.421875 C 203.964844 246.789062 222.609375 240.382812 239.554688 232.277344 C 245.632812 214.371094 249.617188 181.644531 240.214844 164.210938 C 237.773438 168.71875 233.484375 173.019531 229.386719 177.03125 Z M 212.585938 137.695312 C 202.3125 133.652344 192.765625 129.132812 179.871094 129.960938 C 174.355469 130.3125 166.691406 130.332031 160.859375 131.285156 C 156.410156 132.011719 151.285156 133.253906 147.375 134.601562 C 143.476562 135.945312 137.863281 137.003906 135.21875 139.242188 C 134.480469 139.867188 133.910156 141.320312 133.007812 142.554688 C 125.375 153.015625 124.660156 172.292969 135.21875 180.789062 C 148.835938 191.742188 178.796875 183.410156 196.671875 189.625 C 190.605469 188.984375 183.9375 188.949219 177.21875 188.964844 C 178.777344 193.371094 180.777344 197.335938 181.195312 202.886719 C 196.488281 200.445312 206.855469 193.574219 217.007812 185.867188 C 225.617188 179.335938 233.808594 171.726562 239.773438 163.105469 C 233.976562 151.539062 225.640625 142.828125 212.585938 137.695312 Z M 226.734375 271.394531 C 232.671875 271.921875 237.453125 272.507812 243.089844 273.601562 C 247.242188 274.40625 255.117188 275.53125 255.246094 279.789062 C 255.382812 284.238281 247.558594 285.246094 242.648438 286.199219 C 221.902344 290.230469 195.054688 290.640625 170.808594 289.511719 C 158.914062 288.960938 147.046875 288.597656 135.882812 286.421875 C 131.285156 285.523438 123.398438 283.886719 123.28125 280.011719 C 123.1875 276.808594 127.941406 275.304688 131.019531 274.488281 C 141.839844 271.605469 154.21875 271.378906 166.386719 270.289062 C 171.875 260.085938 176.554688 247.074219 178.324219 232.5 C 180.148438 217.464844 180.382812 200.820312 174.34375 189.625 C 159.003906 190.121094 145.792969 190.105469 136.546875 184.542969 C 124.324219 177.191406 120.609375 157.078125 128.808594 143.4375 C 130.777344 140.160156 134.253906 136.519531 137.429688 134.820312 C 139.824219 133.539062 143.289062 132.824219 146.492188 131.726562 C 149.550781 130.679688 152.945312 129.464844 155.996094 129.074219 C 168.359375 127.5 184.96875 126.261719 197.113281 129.074219 C 202.464844 130.316406 207.816406 133.171875 213.25 135.261719 C 232.808594 142.792969 246.132812 159.777344 247.953125 184.765625 C 250.527344 220.082031 237.023438 246.9375 226.734375 271.394531 " fill-opacity="1" fill-rule="evenodd"/></g><path fill="#fcd8c0" d="M 223.417969 162.664062 C 224.664062 162.4375 225.105469 161.40625 225.1875 160.011719 C 224.882812 160.023438 224.699219 159.910156 224.523438 159.792969 C 223.972656 160.570312 223.230469 161.152344 223.417969 162.664062 Z M 225.847656 162.664062 C 227.082031 162.496094 226.910156 160.925781 226.953125 159.570312 C 226.734375 159.570312 226.511719 159.570312 226.292969 159.570312 C 226.164062 160.550781 225.453125 161.875 225.847656 162.664062 Z M 150.691406 155.8125 C 149.457031 156.851562 150.636719 159.429688 149.367188 159.792969 C 148.441406 160.058594 147.964844 157.738281 147.597656 156.699219 C 137.203125 159.449219 130.863281 179.453125 146.492188 181.667969 C 147.582031 181.289062 147.402344 179.632812 148.703125 179.460938 C 149.601562 179.890625 149.535156 181.28125 150.25 181.890625 C 153.484375 183.160156 157.722656 182.769531 162.851562 182.996094 C 166.191406 183.144531 169.894531 183.394531 171.691406 182.777344 C 173.640625 182.105469 173.695312 179.953125 175.449219 179.679688 C 176.800781 180.464844 177.199219 182.207031 178.101562 183.4375 C 185.074219 185.605469 188.820312 180.695312 189.375 175.703125 C 190.585938 164.789062 180.820312 158.179688 173.679688 155.59375 C 172.585938 156.78125 173.03125 159.511719 170.808594 159.570312 C 170.410156 158.449219 170.5 156.070312 170.808594 154.929688 C 164.8125 153.410156 156.109375 154.132812 150.691406 155.8125 Z M 188.714844 149.183594 C 189.28125 149.992188 190.746094 150.910156 192.027344 150.289062 C 192.011719 148.902344 188.953125 146.972656 188.714844 149.183594 Z M 134.554688 148.082031 C 135.007812 149.242188 137.789062 148.84375 137.871094 147.636719 C 137.414062 146.574219 134.628906 146.808594 134.554688 148.082031 Z M 189.816406 146.3125 C 190.710938 147.109375 193.667969 147 193.355469 145.207031 C 192.351562 144.929688 189.339844 144.386719 189.816406 146.3125 Z M 146.050781 150.070312 C 147.195312 150.003906 149.332031 149.148438 148.925781 146.753906 C 148.632812 145.046875 146.371094 144.246094 144.945312 144.542969 C 141.359375 145.292969 142.71875 150.261719 146.050781 150.070312 Z M 135.21875 145.207031 C 135.824219 145.785156 137.835938 145.96875 137.652344 144.542969 C 137.332031 143.578125 134.738281 143.5 135.21875 145.207031 Z M 178.542969 149.40625 C 180.226562 149.554688 183.289062 148.050781 182.523438 145.429688 C 182.132812 144.09375 179.917969 143.515625 178.324219 143.882812 C 175.125 144.617188 175.457031 149.132812 178.542969 149.40625 Z M 239.773438 163.105469 C 233.808594 171.726562 225.617188 179.335938 217.007812 185.871094 C 206.855469 193.574219 196.488281 200.445312 181.195312 202.886719 C 180.78125 197.335938 178.777344 193.371094 177.21875 188.964844 C 183.9375 188.949219 190.605469 188.988281 196.671875 189.625 C 178.796875 183.410156 148.835938 191.742188 135.21875 180.785156 C 124.660156 172.292969 125.375 153.015625 133.007812 142.554688 C 133.910156 141.320312 134.480469 139.863281 135.21875 139.238281 C 137.863281 137.003906 143.476562 135.945312 147.375 134.601562 C 151.285156 133.253906 156.410156 132.011719 160.859375 131.285156 C 166.691406 130.332031 174.355469 130.3125 179.871094 129.957031 C 192.765625 129.132812 202.3125 133.652344 212.585938 137.691406 C 225.640625 142.828125 233.976562 151.539062 239.773438 163.105469 " fill-opacity="1" fill-rule="evenodd"/><path fill="#000000" d="M 178.324219 143.882812 C 179.917969 143.515625 182.132812 144.097656 182.523438 145.429688 C 183.289062 148.050781 180.226562 149.554688 178.542969 149.40625 C 175.457031 149.132812 175.125 144.617188 178.324219 143.882812 " fill-opacity="1" fill-rule="evenodd"/><path fill="#000000" d="M 137.652344 144.542969 C 137.835938 145.96875 135.824219 145.785156 135.21875 145.207031 C 134.738281 143.5 137.332031 143.578125 137.652344 144.542969 " fill-opacity="1" fill-rule="evenodd"/><path fill="#000000" d="M 144.945312 144.542969 C 146.371094 144.246094 148.632812 145.046875 148.925781 146.753906 C 149.332031 149.152344 147.195312 150.003906 146.050781 150.070312 C 142.71875 150.261719 141.359375 145.292969 144.945312 144.542969 " fill-opacity="1" fill-rule="evenodd"/><path fill="#000000" d="M 193.355469 145.207031 C 193.667969 147 190.710938 147.109375 189.816406 146.3125 C 189.339844 144.386719 192.351562 144.929688 193.355469 145.207031 " fill-opacity="1" fill-rule="evenodd"/><path fill="#000000" d="M 137.871094 147.636719 C 137.789062 148.84375 135.007812 149.242188 134.554688 148.078125 C 134.628906 146.8125 137.414062 146.574219 137.871094 147.636719 " fill-opacity="1" fill-rule="evenodd"/><path fill="#000000" d="M 192.027344 150.289062 C 190.746094 150.910156 189.28125 149.992188 188.714844 149.183594 C 188.953125 146.972656 192.011719 148.898438 192.027344 150.289062 " fill-opacity="1" fill-rule="evenodd"/><path fill="#000000" d="M 161.082031 165.539062 C 157.1875 165.242188 152.65625 166.417969 152.902344 169.515625 C 153.03125 171.109375 155.226562 171.667969 157.101562 172.386719 C 158.878906 173.070312 160.691406 174.398438 161.746094 174.820312 C 162.824219 175.253906 164.472656 174.777344 164.398438 176.367188 C 163.777344 177.722656 161.347656 176.726562 160.199219 176.585938 C 160.578125 178.265625 158.957031 180.148438 159.535156 180.566406 C 163.359375 180.707031 167.523438 181.230469 171.25 180.785156 C 172.640625 179.652344 173.472656 176.847656 176.332031 177.914062 C 177.082031 168.519531 169.367188 166.167969 161.082031 165.539062 Z M 152.238281 157.582031 C 152.332031 159.976562 150.980469 161.847656 149.144531 161.78125 C 147.554688 161.722656 147.632812 160.390625 146.273438 159.792969 C 142.570312 162.101562 137.3125 167.980469 139.199219 174.378906 C 139.949219 176.921875 142.582031 178.71875 145.167969 179.902344 C 146.667969 176.945312 150.628906 176.558594 152.019531 180.34375 C 153.285156 180.695312 155.074219 180.53125 156.660156 180.566406 C 157.367188 179.503906 158.269531 178.636719 157.988281 176.585938 C 155.835938 173.828125 149.53125 173.636719 150.691406 168.191406 C 151.003906 166.722656 153.109375 164.667969 154.671875 163.992188 C 158.226562 162.445312 165.1875 163.285156 168.816406 164.210938 C 174.636719 165.695312 178.226562 170.246094 178.765625 176.585938 C 178.894531 178.105469 178.132812 179.625 179.429688 181.671875 C 184.878906 183.175781 187.027344 178.507812 187.164062 174.820312 C 187.5 166.035156 179.980469 160.9375 174.785156 158.464844 C 174.289062 163.195312 166.484375 162.855469 168.597656 156.699219 C 163.386719 155.96875 156.953125 156.496094 152.238281 157.582031 Z M 170.808594 154.929688 C 170.5 156.070312 170.410156 158.449219 170.808594 159.570312 C 173.03125 159.511719 172.585938 156.78125 173.679688 155.59375 C 180.820312 158.179688 190.589844 164.789062 189.375 175.703125 C 188.820312 180.695312 185.078125 185.605469 178.101562 183.4375 C 177.199219 182.207031 176.800781 180.464844 175.449219 179.679688 C 173.695312 179.953125 173.640625 182.105469 171.691406 182.773438 C 169.894531 183.394531 166.191406 183.144531 162.851562 182.996094 C 157.722656 182.769531 153.484375 183.160156 150.25 181.890625 C 149.535156 181.28125 149.601562 179.890625 148.703125 179.460938 C 147.402344 179.632812 147.582031 181.289062 146.492188 181.671875 C 130.863281 179.453125 137.203125 159.449219 147.597656 156.699219 C 147.964844 157.738281 148.441406 160.058594 149.367188 159.792969 C 150.636719 159.425781 149.457031 156.851562 150.691406 155.8125 C 156.109375 154.132812 164.8125 153.410156 170.808594 154.929688 " fill-opacity="1" fill-rule="evenodd"/><path fill="#912424" d="M 168.597656 156.699219 C 166.484375 162.855469 174.289062 163.195312 174.785156 158.464844 C 179.980469 160.9375 187.5 166.035156 187.164062 174.820312 C 187.027344 178.507812 184.878906 183.179688 179.429688 181.671875 C 178.132812 179.625 178.894531 178.105469 178.765625 176.589844 C 178.226562 170.246094 174.636719 165.695312 168.816406 164.210938 C 165.1875 163.285156 158.226562 162.445312 154.671875 163.992188 C 153.109375 164.667969 151.003906 166.722656 150.691406 168.191406 C 149.53125 173.636719 155.835938 173.828125 157.988281 176.589844 C 158.269531 178.636719 157.367188 179.503906 156.660156 180.566406 C 155.074219 180.53125 153.285156 180.695312 152.019531 180.34375 C 150.628906 176.558594 146.667969 176.945312 145.167969 179.902344 C 142.582031 178.71875 139.949219 176.921875 139.199219 174.378906 C 137.3125 167.980469 142.570312 162.101562 146.273438 159.792969 C 147.632812 160.390625 147.554688 161.722656 149.144531 161.78125 C 150.980469 161.851562 152.332031 159.976562 152.238281 157.582031 C 156.953125 156.496094 163.386719 155.96875 168.597656 156.699219 " fill-opacity="1" fill-rule="evenodd"/><path fill="#000000" d="M 226.289062 159.570312 C 226.511719 159.570312 226.730469 159.570312 226.953125 159.570312 C 226.910156 160.925781 227.082031 162.496094 225.847656 162.664062 C 225.453125 161.875 226.160156 160.550781 226.289062 159.570312 " fill-opacity="1" fill-rule="evenodd"/><path fill="#000000" d="M 224.523438 159.792969 C 224.699219 159.910156 224.882812 160.023438 225.1875 160.011719 C 225.105469 161.40625 224.664062 162.4375 223.417969 162.664062 C 223.230469 161.152344 223.972656 160.570312 224.523438 159.792969 " fill-opacity="1" fill-rule="evenodd"/><path fill="#f4d8c6" d="M 240.214844 164.210938 C 249.617188 181.644531 245.632812 214.371094 239.554688 232.277344 C 222.609375 240.382812 203.964844 246.789062 178.542969 246.421875 C 181.210938 234.09375 183.175781 218.671875 181.640625 204.210938 C 201.949219 200.589844 216.699219 189.445312 229.386719 177.03125 C 233.484375 173.019531 237.773438 168.71875 240.214844 164.210938 " fill-opacity="1" fill-rule="evenodd"/><path fill="#ff9999" d="M 176.332031 177.914062 C 173.472656 176.847656 172.640625 179.65625 171.25 180.789062 C 167.523438 181.230469 163.359375 180.707031 159.535156 180.566406 C 158.957031 180.148438 160.578125 178.265625 160.199219 176.589844 C 161.347656 176.730469 163.777344 177.722656 164.398438 176.367188 C 164.472656 174.777344 162.824219 175.253906 161.746094 174.820312 C 160.691406 174.398438 158.878906 173.070312 157.101562 172.386719 C 155.226562 171.667969 153.03125 171.109375 152.902344 169.515625 C 152.65625 166.417969 157.1875 165.242188 161.082031 165.539062 C 169.367188 166.167969 177.078125 168.519531 176.332031 177.914062 " fill-opacity="1" fill-rule="evenodd"/><path fill="#fcd8c0" d="M 184.070312 278.683594 C 184.613281 277.414062 183.503906 276.054688 182.523438 275.589844 C 182.375 277.289062 182.644531 278.5625 184.070312 278.683594 Z M 188.050781 276.695312 C 188.777344 275.761719 187.871094 273.390625 186.503906 273.160156 C 186.027344 274.503906 186.578125 276.582031 188.050781 276.695312 Z M 238.449219 234.265625 C 238.636719 234.226562 238.65625 234.351562 238.667969 234.488281 C 236.503906 241.15625 234.070312 247.710938 231.375 253.933594 C 228.679688 260.164062 226.34375 266.433594 222.976562 272.054688 C 221.449219 277.285156 218.46875 282.636719 215.238281 286.863281 C 197.164062 287.6875 177.03125 287.96875 159.535156 286.421875 C 159.28125 285.054688 161.21875 284.027344 162.1875 282.664062 C 168.972656 273.105469 174.308594 260.785156 178.101562 247.96875 C 203.132812 248.316406 222.082031 242.582031 238.449219 234.265625 " fill-opacity="1" fill-rule="evenodd"/><path fill="#896c31" d="M 165.945312 272.941406 C 162.984375 277.492188 160.125 282.148438 156.882812 286.421875 C 148.554688 285.378906 140.175781 285.0625 132.125 282.882812 C 131.3125 282.664062 125.789062 281.132812 125.714844 280.011719 C 125.613281 278.527344 131.246094 277.230469 133.449219 276.695312 C 143.167969 274.34375 155.246094 273.457031 165.945312 272.941406 " fill-opacity="1" fill-rule="evenodd"/><path fill="#000000" d="M 186.503906 273.160156 C 187.871094 273.390625 188.777344 275.761719 188.050781 276.695312 C 186.578125 276.582031 186.027344 274.503906 186.503906 273.160156 " fill-opacity="1" fill-rule="evenodd"/><path fill="#896c31" d="M 218.113281 286.640625 C 220.664062 282.636719 222.527344 277.941406 224.964844 273.824219 C 231.695312 274.394531 240.109375 275.171875 247.070312 277.140625 C 248.007812 277.402344 252.75 278.816406 252.816406 279.789062 C 252.90625 281.097656 247.480469 282.667969 245.742188 283.105469 C 237.277344 285.238281 227.402344 285.703125 218.113281 286.640625 " fill-opacity="1" fill-rule="evenodd"/><path fill="#000000" d="M 182.523438 275.589844 C 183.503906 276.054688 184.613281 277.414062 184.070312 278.683594 C 182.644531 278.5625 182.375 277.289062 182.523438 275.589844 " fill-opacity="1" fill-rule="evenodd"/><g clip-path="url(#05a526361e)"><g clip-path="url(#b8e79efcce)"><g clip-path="url(#a0e34bae56)"><g clip-path="url(#2b2c8df605)"><path fill="#ffffff" d="M 239.792969 107.796875 C 240.65625 113.277344 239.722656 117.128906 232.394531 120.582031 C 228.074219 122.617188 224.816406 123.53125 222.917969 123.929688 C 223.339844 122 223.632812 120.613281 223.671875 120.089844 C 223.761719 118.859375 220.648438 115.644531 213.550781 112.566406 C 217.210938 111.359375 222.140625 110.960938 222.199219 110.953125 L 222.269531 109.707031 C 221.605469 109.578125 220.898438 109.484375 220.164062 109.429688 C 215.886719 109.109375 211.425781 110.109375 208.945312 110.800781 C 206.335938 109.917969 203.355469 109.085938 199.984375 108.359375 C 202.316406 105.976562 205.679688 102.25 205.863281 102.046875 L 207.417969 100.316406 L 205.210938 101.019531 C 201.679688 102.136719 197.625 105.742188 195.746094 107.542969 C 194.515625 107.332031 193.246094 107.136719 191.925781 106.957031 C 190.289062 106.738281 188.636719 106.5625 187.023438 106.441406 C 181.796875 106.054688 177.148438 106.226562 173.117188 106.683594 C 171.59375 104.0625 167.839844 97.902344 164.953125 95.519531 L 163.980469 96.253906 C 164.125 96.59375 167.109375 103.605469 169.746094 107.152344 C 168.125 107.421875 166.628906 107.734375 165.261719 108.066406 C 163.621094 107.25 160.453125 105.933594 156.652344 105.652344 C 153.34375 105.40625 150.261719 106.007812 147.507812 107.4375 L 147.953125 108.605469 C 147.984375 108.597656 151.050781 107.796875 155.019531 108.089844 C 157.09375 108.242188 159.023438 108.667969 160.792969 109.347656 C 157.300781 110.515625 155.347656 111.59375 155.152344 111.699219 L 153.609375 112.570312 L 155.359375 112.871094 C 155.453125 112.882812 155.550781 112.898438 155.65625 112.90625 C 156.691406 112.980469 158.050781 112.648438 160.117188 112.136719 C 164.882812 110.957031 172.859375 108.976562 186.039062 109.953125 C 186.6875 110 187.355469 110.054688 188.023438 110.121094 C 207.214844 111.910156 218.574219 119.808594 219.855469 121.101562 C 219.777344 121.574219 219.566406 122.765625 219.332031 124.09375 C 218.816406 126.976562 218.050781 131.296875 217.382812 135.402344 C 213.15625 133.539062 201.164062 128.871094 184.292969 127.382812 C 183.722656 127.335938 183.15625 127.285156 182.589844 127.246094 C 164.667969 125.917969 151.691406 128.953125 146.085938 131.746094 C 145.582031 129.570312 145.070312 127.957031 144.695312 126.9375 C 149.234375 124.984375 150.757812 122.996094 150.832031 122.890625 L 152.023438 121.269531 L 150.125 121.917969 C 141.425781 124.890625 136.90625 125.96875 133.996094 125.75 C 130.734375 125.511719 129.488281 123.5 128.210938 119.636719 C 125.746094 112.183594 125.945312 110.496094 130.3125 101.566406 C 134.820312 92.351562 139.75 83.152344 146.09375 80.683594 C 147.929688 79.972656 150.089844 79.695312 152.507812 79.875 C 155.125 80.070312 157.5 80.753906 158.976562 81.273438 C 154.574219 85.164062 152.359375 88.378906 152.203125 88.609375 L 153.15625 89.410156 C 153.285156 89.289062 165.996094 76.917969 178.164062 74.039062 C 180.71875 73.433594 183.160156 73.210938 185.425781 73.378906 C 189.953125 73.714844 192.84375 75.546875 194.285156 76.753906 C 190.421875 78.472656 188.507812 80.195312 188.367188 80.324219 L 189.042969 81.367188 C 196.902344 77.785156 206.304688 76.09375 214.832031 76.726562 C 221.984375 77.253906 227.554688 79.355469 229.734375 82.34375 C 234.351562 88.675781 232.570312 99.984375 232.554688 100.09375 L 232.199219 102.265625 L 233.636719 100.613281 C 234.164062 100.011719 234.585938 98.980469 234.902344 97.6875 C 236.484375 99.753906 239.144531 103.714844 239.792969 107.796875 Z M 239.792969 107.796875 " fill-opacity="1" fill-rule="nonzero"/></g></g></g></g><g clip-path="url(#213c999722)"><g clip-path="url(#c6b476faf7)"><g clip-path="url(#19bc624fa4)"><g clip-path="url(#5871f1e0f1)"><path fill="#000000" d="M 160.117188 112.136719 C 158.050781 112.648438 156.691406 112.980469 155.65625 112.90625 C 155.550781 112.898438 155.453125 112.882812 155.359375 112.871094 L 153.609375 112.570312 L 155.152344 111.699219 C 155.347656 111.59375 157.300781 110.515625 160.792969 109.347656 C 159.023438 108.667969 157.09375 108.242188 155.019531 108.089844 C 151.050781 107.796875 147.984375 108.597656 147.953125 108.605469 L 147.507812 107.4375 C 150.261719 106.007812 153.34375 105.40625 156.652344 105.652344 C 160.453125 105.933594 163.621094 107.25 165.261719 108.066406 C 166.628906 107.734375 168.125 107.421875 169.746094 107.152344 C 167.109375 103.605469 164.125 96.59375 163.980469 96.253906 L 164.953125 95.519531 C 167.839844 97.902344 171.59375 104.0625 173.117188 106.683594 C 177.148438 106.226562 181.796875 106.054688 187.023438 106.441406 C 188.636719 106.5625 190.289062 106.738281 191.925781 106.957031 C 193.246094 107.136719 194.515625 107.332031 195.746094 107.542969 C 197.625 105.742188 201.679688 102.136719 205.210938 101.019531 L 207.417969 100.316406 L 205.863281 102.046875 C 205.679688 102.25 202.316406 105.976562 199.984375 108.359375 C 203.355469 109.085938 206.335938 109.917969 208.945312 110.800781 C 211.425781 110.109375 215.886719 109.109375 220.164062 109.429688 C 220.898438 109.484375 221.605469 109.578125 222.269531 109.707031 L 222.199219 110.953125 C 222.140625 110.960938 217.210938 111.359375 213.550781 112.566406 C 220.648438 115.644531 223.761719 118.859375 223.671875 120.089844 C 223.632812 120.613281 223.339844 122 222.917969 123.929688 C 224.816406 123.53125 228.074219 122.617188 232.394531 120.582031 C 239.722656 117.128906 240.65625 113.277344 239.792969 107.796875 C 239.144531 103.714844 236.484375 99.753906 234.902344 97.6875 C 234.585938 98.980469 234.164062 100.011719 233.636719 100.613281 L 232.199219 102.265625 L 232.554688 100.09375 C 232.570312 99.984375 234.351562 88.675781 229.734375 82.34375 C 227.554688 79.355469 221.984375 77.253906 214.832031 76.726562 C 206.304688 76.09375 196.902344 77.785156 189.042969 81.367188 L 188.367188 80.324219 C 188.507812 80.195312 190.421875 78.472656 194.285156 76.753906 C 192.84375 75.546875 189.953125 73.714844 185.425781 73.378906 C 183.160156 73.210938 180.71875 73.433594 178.164062 74.039062 C 165.996094 76.917969 153.285156 89.289062 153.15625 89.410156 L 152.203125 88.609375 C 152.359375 88.378906 154.574219 85.164062 158.976562 81.273438 C 157.5 80.753906 155.125 80.070312 152.507812 79.875 C 150.089844 79.695312 147.929688 79.972656 146.09375 80.683594 C 139.75 83.152344 134.820312 92.351562 130.3125 101.566406 C 125.945312 110.496094 125.746094 112.183594 128.210938 119.636719 C 129.488281 123.5 130.734375 125.511719 133.996094 125.75 C 136.90625 125.96875 141.425781 124.890625 150.125 121.917969 L 152.023438 121.269531 L 150.832031 122.890625 C 150.757812 122.996094 149.234375 124.984375 144.695312 126.9375 C 145.070312 127.957031 145.582031 129.570312 146.085938 131.746094 C 151.691406 128.953125 164.667969 125.917969 182.589844 127.246094 C 183.15625 127.285156 183.722656 127.335938 184.292969 127.382812 C 201.164062 128.871094 213.15625 133.539062 217.382812 135.402344 C 218.050781 131.296875 218.816406 126.976562 219.332031 124.09375 C 219.566406 122.765625 219.777344 121.574219 219.855469 121.101562 C 218.574219 119.808594 207.214844 111.910156 188.023438 110.121094 C 187.355469 110.054688 186.6875 110 186.039062 109.953125 C 172.859375 108.976562 164.882812 110.957031 160.117188 112.136719 Z M 235.398438 94.792969 C 242.625 102.4375 243.5 111.464844 243.222656 114.09375 C 242.902344 117.160156 240.015625 119.863281 232.207031 124.429688 C 227.527344 127.160156 224.082031 127.742188 222.066406 127.769531 C 221.40625 130.761719 220.679688 134.148438 220.113281 137.304688 C 219.308594 141.757812 215.3125 138.261719 212.710938 137.070312 C 208.964844 135.363281 205.167969 133.976562 201.191406 132.886719 C 194.894531 131.15625 188.371094 129.988281 181.847656 129.632812 C 172.695312 129.128906 162.230469 129.839844 153.453125 132.609375 C 152.550781 132.894531 143.449219 135.386719 143.445312 135.410156 C 142.90625 132.460938 142.253906 129.703125 141.695312 128.054688 C 141.371094 128.15625 141.050781 128.261719 140.703125 128.363281 C 137.183594 129.394531 134.453125 129.820312 132.351562 129.664062 C 130.230469 129.507812 128.664062 128.742188 127.550781 127.324219 C 125.722656 124.984375 122.257812 114.007812 123.003906 110.835938 C 123.746094 107.683594 133.941406 83.625 141.980469 79.277344 C 144.808594 77.742188 148.457031 77.128906 152.820312 77.449219 C 156.558594 77.726562 159.847656 78.617188 161.53125 79.148438 C 164.28125 76.992188 167.652344 74.765625 171.664062 72.804688 C 176.511719 70.441406 181.453125 69.425781 186.363281 69.789062 C 192.171875 70.21875 196.71875 72.574219 199.101562 75.003906 C 201.667969 74.257812 204.707031 73.644531 208.25 73.351562 C 210.914062 73.128906 213.546875 73.109375 216.066406 73.296875 C 224.855469 73.949219 232.089844 77.140625 234.070312 81.242188 C 235.507812 84.214844 235.914062 90.164062 235.398438 94.792969 Z M 235.398438 94.792969 " fill-opacity="1" fill-rule="nonzero"/></g></g></g></g></svg>