<?xml version="1.0" encoding="iso-8859-1"?>
<!-- Uploaded to: SVG Repo, www.svgrepo.com, Generator: SVG Repo Mixer Tools -->
<svg version="1.1" id="Layer_1" xmlns="http://www.w3.org/2000/svg" xmlns:xlink="http://www.w3.org/1999/xlink" 
	 viewBox="0 0 511.999 511.999" xml:space="preserve">
<g>
	<path style="fill:#333333;" d="M133.336,435.199h245.328c13.993,0,25.336,11.342,25.336,25.332l0,0
		c0,13.99-11.343,25.332-25.336,25.332H133.336c-13.993,0-25.336-11.342-25.336-25.332l0,0
		C108,446.541,119.344,435.199,133.336,435.199z"/>
	<path style="fill:#333333;" d="M32,26.135h448c17.673,0,32,14.327,32,32v256.001c0,17.673-14.327,32-32,32H32
		c-17.673,0.001-32-14.326-32-32V58.135C0,40.462,14.327,26.135,32,26.135z"/>
</g>
<rect x="159.998" y="386.94" style="fill:#CCCCCC;" width="191.999" height="48.264"/>
<g>
	<path style="fill:#FFFFFF;" d="M163.153,140.983c0,21.072-12.8,33.104-30.128,33.104c-17.72,0-28.904-13.52-28.904-32
		c0-19.304,12.128-32.92,29.84-32.92C152.336,109.175,163.153,123.071,163.153,140.983z M116.248,141.911
		c0,12.8,6.4,22.944,17.44,22.944s17.344-10.264,17.344-23.416c0-11.84-5.872-23.032-17.344-23.032S116.248,128.951,116.248,141.911
		z"/>
	<path style="fill:#FFFFFF;" d="M173.073,173.055v-62.856h13.056l16.224,26.952c4.055,6.773,7.639,13.816,10.728,21.08h0.184
		c-0.752-8.392-1.032-16.504-1.032-26.12v-21.912h10.632v62.856h-11.84l-16.416-27.609c-4.162-7.027-7.928-14.281-11.28-21.728
		l-0.28,0.096c0.471,8.12,0.56,16.416,0.56,26.768v22.48L173.073,173.055z"/>
	<path style="fill:#FFFFFF;" d="M236.129,110.199H247.6v53.248h25.84v9.6h-37.312v-62.848H236.129z"/>
	<path style="fill:#FFFFFF;" d="M293.6,110.199v62.856h-11.472v-62.856H293.6z"/>
	<path style="fill:#FFFFFF;" d="M306.752,173.055v-62.856h13.056l16.192,26.952c4.055,6.773,7.639,13.816,10.728,21.08h0.184
		c-0.752-8.392-1.032-16.504-1.032-26.12v-21.912h10.632v62.856h-11.84l-16.416-27.609c-4.161-7.027-7.928-14.281-11.28-21.728
		l-0.28,0.096c0.471,8.12,0.552,16.416,0.552,26.768v22.48L306.752,173.055z"/>
	<path style="fill:#FFFFFF;" d="M404.969,145.175h-23.688v18.464h26.488v9.424h-37.96v-62.864h36.592v9.424h-25.12v16.224h23.688
		V145.175z"/>
	<path style="fill:#FFFFFF;" d="M72.64,199.047c5.513-0.926,11.097-1.365,16.689-1.312c6.272-0.604,12.574,0.795,18,4
		c4.151,2.439,6.65,6.939,6.528,11.752c-0.182,6.313-4.395,11.797-10.449,13.6v0.184c7.394,1.508,12.699,8.022,12.68,15.568
		c0.084,5.026-2.153,9.81-6.064,12.968c-6.832,4.654-15.092,6.734-23.312,5.872c-4.706,0.02-9.41-0.261-14.08-0.84L72.64,199.047z
		 M84.016,223.847h5.872c7.928,0,12.408-3.736,12.408-9.048c0-5.872-4.48-8.576-11.752-8.576c-2.187-0.071-4.374,0.085-6.528,0.464
		V223.847z M84.016,252.759c2.015,0.208,4.039,0.299,6.064,0.272c7.368,0,13.896-2.8,13.896-10.536
		c0-7.272-6.344-10.256-14.272-10.256H84L84.016,252.759z"/>
	<path style="fill:#FFFFFF;" d="M138.68,243.247l-5.408,17.816h-11.84l20.168-62.864h14.64l20.432,62.856h-12.344l-5.688-17.816
		L138.68,243.247z M156.68,234.575l-4.944-15.488c-1.208-3.824-2.232-8.112-3.2-11.752h-0.176c-0.936,3.64-1.864,8-2.984,11.752
		l-4.848,15.488H156.68z"/>
	<path style="fill:#FFFFFF;" d="M185.424,261.055v-62.856h13.056l16.224,26.952c4.055,6.773,7.639,13.816,10.728,21.08h0.168
		c-0.752-8.392-1.032-16.504-1.032-26.12v-21.912h10.632v62.856h-11.84l-16.4-27.609c-4.161-7.022-7.927-14.27-11.28-21.712
		l-0.28,0.096c0.471,8.12,0.552,16.416,0.552,26.768v22.48L185.424,261.055z"/>
	<path style="fill:#FFFFFF;" d="M248.48,198.199h11.376v28.912h0.28c1.496-2.4,3.08-4.664,4.568-6.816l16.416-22.104h14.168
		l-21.6,26.768l23.032,36.096h-13.456l-17.816-28.8l-5.6,6.72v22.104H248.48L248.48,198.199L248.48,198.199z"/>
	<path style="fill:#FFFFFF;" d="M314.248,198.199v62.856h-11.464v-62.856H314.248z"/>
	<path style="fill:#FFFFFF;" d="M327.408,261.055v-62.856h13.056l16.224,26.952c4.053,6.773,7.639,13.816,10.728,21.08h0.184
		c-0.752-8.392-1.032-16.504-1.032-26.12v-21.912h10.632v62.856h-11.84l-16.416-27.609c-4.161-7.027-7.928-14.281-11.28-21.728
		l-0.28,0.096c0.471,8.12,0.552,16.416,0.552,26.768v22.48L327.408,261.055z"/>
	<path style="fill:#FFFFFF;" d="M440.8,258.135c-6.504,2.294-13.344,3.491-20.24,3.544c-8.97,0.589-17.806-2.413-24.56-8.344
		c-6.002-6.163-9.187-14.535-8.8-23.128c0-19.864,14.168-32.64,34.968-32.64c5.711-0.159,11.394,0.856,16.696,2.984l-2.512,9.224
		c-4.506-1.923-9.375-2.845-14.272-2.704c-11.568-1.055-21.8,7.468-22.855,19.035c-0.107,1.172-0.115,2.351-0.025,3.525
		c-1.099,11.435,7.28,21.595,18.715,22.694c1.034,0.099,2.073,0.121,3.109,0.065c2.949,0.15,5.898-0.293,8.672-1.304v-15.68h-11.065
		v-9.04h22.168L440.8,258.135L440.8,258.135z"/>
</g>
</svg>